<?xml version="1.0" standalone="no"?>
<!DOCTYPE svg PUBLIC "-//W3C//DTD SVG 20010904//EN"
 "http://www.w3.org/TR/2001/REC-SVG-20010904/DTD/svg10.dtd">
<svg version="1.0" xmlns="http://www.w3.org/2000/svg"
 width="322.000000pt" height="322.000000pt" viewBox="0 0 322.000000 322.000000"
 preserveAspectRatio="xMidYMid meet">
<metadata>
Created by potrace 1.11, written by Peter Selinger 2001-2013
</metadata>
<g transform="translate(0.000000,322.000000) scale(0.100000,-0.100000)"
fill="#000000" stroke="none">
<path d="M799 2065 c-3 -2 -27 -6 -54 -10 -118 -13 -311 -77 -394 -129 -42
-27 -66 -60 -56 -76 9 -15 31 -12 108 15 114 40 209 54 337 51 155 -5 272 -45
397 -137 60 -44 91 -49 121 -16 38 40 102 187 102 235 0 19 -64 43 -154 57
-72 12 -398 20 -407 10z"/>
<path d="M2190 2061 c-55 -12 -139 -51 -215 -100 -38 -25 -73 -47 -76 -49 -4
-1 -5 10 -3 25 3 32 -16 82 -40 102 -24 20 -123 22 -193 4 -119 -30 -243 -107
-264 -161 -13 -33 1 -41 54 -31 34 6 45 5 55 -9 24 -32 10 -77 -121 -389 -81
-191 -97 -261 -72 -300 l16 -24 159 3 c97 2 163 7 170 14 6 6 12 37 14 70 4
66 21 119 110 344 34 85 70 181 81 212 17 53 23 59 66 78 57 24 122 28 145 10
29 -25 16 -76 -73 -270 -72 -159 -131 -330 -137 -396 -4 -57 15 -64 184 -64
80 0 151 4 158 9 8 4 20 44 28 88 14 85 66 244 113 346 15 34 43 107 62 161
32 95 35 100 74 117 46 21 115 25 133 7 28 -28 12 -87 -82 -305 -146 -339
-122 -435 108 -435 163 1 296 47 296 104 0 19 -22 32 -72 42 -38 9 -68 44 -68
81 0 43 12 78 80 225 84 183 103 243 104 326 1 83 -13 115 -63 145 -98 58
-261 26 -417 -82 -23 -16 -45 -29 -48 -29 -3 0 -6 12 -6 26 0 35 -32 78 -74
98 -35 17 -121 20 -186 7z"/>
<path d="M590 1825 c-130 -27 -173 -77 -252 -300 -74 -209 -108 -255 -184
-255 -41 0 -59 -21 -44 -49 26 -49 166 -92 298 -92 103 1 137 6 177 30 47 27
69 69 104 200 18 67 37 123 41 126 13 8 88 -22 150 -61 87 -53 106 -48 152 46
21 41 40 92 43 112 5 31 3 39 -16 49 -33 17 -153 5 -237 -24 l-71 -25 20 52
c11 28 31 75 45 105 29 65 30 77 4 91 -25 14 -156 11 -230 -5z"/>
</g>
</svg>
